<svg width="21" height="20" viewBox="0 0 21 20" fill="none" xmlns="http://www.w3.org/2000/svg">
  <rect x="0.5" width="20" height="20" rx="10" fill="#0D4B33" />
  <g clip-path="url(#clip0_81_4228)">
    <path
      d="M9.57326 4.5H11.5355V13.5825C10.5289 13.7737 9.78983 13.8502 8.98723 13.8502C6.59183 13.8501 5.34317 12.7672 5.34317 10.6903C5.34317 8.68987 6.66833 7.39031 8.71958 7.39031C9.03814 7.39031 9.2802 7.41581 9.57326 7.49222V4.5ZM9.57326 9.07172C9.34395 8.99531 9.1528 8.96991 8.91073 8.96991C7.91698 8.96991 7.34351 9.58144 7.34351 10.6517C7.34351 11.6965 7.89148 12.2698 8.89808 12.2698C9.11455 12.2698 9.29295 12.2571 9.57326 12.219V9.07172Z"
      fill="white" />
    <path
      d="M14.6568 7.53009V12.0788C14.6568 13.646 14.542 14.3977 14.198 15.0474C13.8795 15.6719 13.459 16.0668 12.5927 16.5L10.7706 15.6337C11.6371 15.2258 12.0574 14.8693 12.325 14.3212C12.6053 13.7606 12.6947 13.1108 12.6947 11.4035V7.53009H14.6568ZM12.6946 4.51041H14.6568V6.52359H12.6946V4.51041Z"
      fill="white" />
  </g>
  <defs>
    <clipPath id="clip0_81_4228">
      <rect width="12" height="12" fill="white" transform="translate(4 4.5)" />
    </clipPath>
  </defs>
</svg>
  