<svg width="21" height="20" viewBox="0 0 21 20" fill="none" xmlns="http://www.w3.org/2000/svg">
  <rect x="0.5" width="20" height="20" rx="10" fill="#1D63ED" />
  <path
    d="M19.24 8.93047C18.8477 8.67958 17.817 8.57242 17.0676 8.76421C17.0272 8.05495 16.6423 7.45726 15.9382 6.93577L15.6776 6.76951L15.5039 7.0188C15.1624 7.51134 15.0186 8.16753 15.0695 8.76401C15.1097 9.13151 15.2443 9.54465 15.5039 9.84439C14.5286 10.382 13.6296 10.2599 9.6483 10.2599H3.50138C3.4834 11.1142 3.6279 12.7574 4.72763 14.0952C4.84907 14.2429 4.98236 14.3859 5.12686 14.5236C6.02095 15.3744 7.37182 15.9982 9.39188 16C12.4736 16.0026 15.114 14.4198 16.72 10.5927C17.2485 10.6009 18.6436 10.6827 19.3263 9.42905C19.343 9.40794 19.5 9.09653 19.5 9.09653L19.2398 8.93027L19.24 8.93047ZM7.51294 8.14924H5.78442V9.79172H7.51294V8.14924ZM9.74604 8.14924H8.01753V9.79172H9.74604V8.14924ZM11.9792 8.14924H10.2506V9.79172H11.9792V8.14924ZM14.2123 8.14924H12.4837V9.79172H14.2123V8.14924ZM5.27983 8.14924H3.55131V9.79172H5.27983V8.14924ZM7.51294 6.07472H5.78442V7.7172H7.51294V6.07472ZM9.74604 6.07472H8.01753V7.7172H9.74604V6.07472ZM11.9792 6.07472H10.2506V7.7172H11.9792V6.07472ZM11.9792 4H10.2506V5.64249H11.9792V4Z"
    fill="white" />
</svg>
  