<svg width="20" height="20" viewBox="0 0 20 20" fill="none" xmlns="http://www.w3.org/2000/svg">
  <rect width="20" height="20" rx="10" fill="white" />
  <g clip-path="url(#clip0_81_4546)">
    <path
      d="M10 10C10 8.72449 11.1079 7.69043 12.4745 7.69043C13.8412 7.69043 14.9491 8.72449 14.9491 10C14.9491 11.2756 13.8412 12.3096 12.4745 12.3096C11.1079 12.3096 10 11.2756 10 10Z"
      fill="#1ABCFE" />
    <path
      d="M5.0509 14.6191C5.0509 13.3436 6.15879 12.3096 7.52545 12.3096H10V14.6191C10 15.8947 8.89212 16.9287 7.52545 16.9287C6.15879 16.9287 5.0509 15.8947 5.0509 14.6191Z"
      fill="#0ACF83" />
    <path
      d="M10 3.07129V7.69043H12.4745C13.8412 7.69043 14.9491 6.65641 14.9491 5.38087C14.9491 4.10532 13.8412 3.07129 12.4745 3.07129H10Z"
      fill="#FF7262" />
    <path
      d="M5.0509 5.38087C5.0509 6.65641 6.15879 7.69043 7.52545 7.69043H10V3.07129H7.52545C6.15879 3.07129 5.0509 4.10532 5.0509 5.38087Z"
      fill="#F24E1E" />
    <path
      d="M5.0509 10C5.0509 11.2756 6.15879 12.3096 7.52545 12.3096H10V7.69043H7.52545C6.15879 7.69043 5.0509 8.72449 5.0509 10Z"
      fill="#A259FF" />
  </g>
  <defs>
    <clipPath id="clip0_81_4546">
      <rect width="10" height="14" fill="white" transform="translate(5 3)" />
    </clipPath>
  </defs>
</svg>
  