<svg width="21" height="20" viewBox="0 0 21 20" fill="none" xmlns="http://www.w3.org/2000/svg">
  <rect x="0.5" width="20" height="20" rx="10" fill="#F03C2E" />
  <g clip-path="url(#clip0_81_4209)">
    <mask id="mask0_81_4209" style="mask-type:luminance" maskUnits="userSpaceOnUse" x="4" y="3"
      width="13" height="14">
      <path d="M4 3.51597H16.984V16.5H4V3.51597Z" fill="white" />
    </mask>
    <g mask="url(#mask0_81_4209)">
      <path
        d="M16.7392 9.42989L11.0701 3.76119C10.9924 3.68348 10.9002 3.62183 10.7987 3.57977C10.6972 3.53772 10.5884 3.51607 10.4786 3.51607C10.3687 3.51607 10.2599 3.53772 10.1584 3.57977C10.0569 3.62183 9.96474 3.68348 9.88708 3.76119L8.7103 4.93853L10.2033 6.43156C10.3789 6.37194 10.5676 6.36264 10.7481 6.40469C10.9286 6.44674 11.0938 6.53847 11.2249 6.66951C11.3568 6.8015 11.4488 6.96793 11.4906 7.14978C11.5323 7.33162 11.5219 7.52153 11.4608 7.69778L12.9003 9.13683C13.0766 9.07559 13.2665 9.06528 13.4484 9.10707C13.6303 9.14885 13.7968 9.24105 13.9287 9.37309C14.0211 9.46547 14.0944 9.57514 14.1444 9.69584C14.1944 9.81655 14.2201 9.94592 14.2201 10.0766C14.2201 10.2072 14.1944 10.3366 14.1444 10.4573C14.0944 10.578 14.0211 10.6877 13.9287 10.7801C13.7419 10.9667 13.4886 11.0715 13.2246 11.0715C12.9606 11.0715 12.7074 10.9667 12.5206 10.7801C12.3818 10.6411 12.2873 10.4641 12.2488 10.2715C12.2104 10.0789 12.2298 9.87926 12.3047 9.69766L10.9623 8.3557V11.8879C11.104 11.9579 11.2269 12.0606 11.321 12.1876C11.4151 12.3146 11.4775 12.4621 11.5032 12.6181C11.5289 12.774 11.5171 12.9338 11.4687 13.0843C11.4204 13.2347 11.3368 13.3715 11.2251 13.4832C11.1327 13.5756 11.023 13.6489 10.9023 13.6989C10.7816 13.7489 10.6523 13.7746 10.5216 13.7746C10.391 13.7746 10.2616 13.7489 10.1409 13.6989C10.0202 13.6489 9.9105 13.5756 9.81812 13.4832C9.72571 13.3908 9.6524 13.2811 9.60238 13.1604C9.55237 13.0397 9.52662 12.9103 9.52662 12.7797C9.52662 12.649 9.55237 12.5196 9.60238 12.3989C9.6524 12.2782 9.72571 12.1685 9.81812 12.0761C9.91122 11.9828 10.0219 11.9089 10.1437 11.8586V8.29395C10.0224 8.24397 9.91211 8.17053 9.81926 8.07782C9.72641 7.98511 9.65279 7.87497 9.60264 7.75372C9.55248 7.63248 9.52677 7.50252 9.52699 7.37131C9.52721 7.2401 9.55335 7.11022 9.60391 6.98914L8.1318 5.51675L4.24423 9.40333C4.08758 9.56029 3.99959 9.77299 3.99959 9.99476C3.99959 10.2165 4.08758 10.4292 4.24423 10.5862L9.91365 16.2556C10.0706 16.4122 10.2833 16.5002 10.505 16.5002C10.7267 16.5002 10.9394 16.4122 11.0964 16.2556L16.7392 10.6128C16.8959 10.4558 16.9838 10.2431 16.9838 10.0213C16.9838 9.79956 16.8959 9.58686 16.7392 9.42989Z"
        fill="white" />
    </g>
  </g>
  <defs>
    <clipPath id="clip0_81_4209">
      <rect width="13" height="13" fill="white" transform="translate(4 3.5)" />
    </clipPath>
  </defs>
</svg>
  