<svg width="20" height="20" viewBox="0 0 20 20" fill="none" xmlns="http://www.w3.org/2000/svg">
  <rect width="20" height="20" rx="10" fill="#007FFF" />
  <g clip-path="url(#clip0_81_4151)">
    <path fill-rule="evenodd" clip-rule="evenodd"
      d="M13.9429 11.9453C13.9915 11.9169 14.0319 11.8759 14.06 11.8266C14.0882 11.7772 14.1031 11.7212 14.1032 11.6641L14.109 9.78027C14.1092 9.72318 14.1241 9.66714 14.1522 9.61777C14.1804 9.56841 14.2208 9.52746 14.2694 9.49902L15.2715 8.91243C15.32 8.88401 15.3751 8.8691 15.4311 8.8692C15.4871 8.86929 15.5421 8.88439 15.5906 8.91298C15.639 8.94157 15.6793 8.98264 15.7073 9.03208C15.7352 9.08152 15.75 9.13759 15.75 9.19466V12.6195C15.75 12.6767 15.7351 12.733 15.707 12.7825C15.6788 12.8321 15.6384 12.8732 15.5896 12.9017L11.8077 15.1152C11.7594 15.1435 11.7047 15.1584 11.649 15.1584C11.5933 15.1585 11.5386 15.1437 11.4902 15.1156L8.52224 13.3857C8.47334 13.3573 8.4327 13.3162 8.40443 13.2665C8.37616 13.2169 8.36125 13.1606 8.36124 13.1032V11.3763C8.36124 11.3743 8.36347 11.373 8.36539 11.374C8.36699 11.375 8.36922 11.374 8.36922 11.3717V11.3698C8.36922 11.3685 8.36986 11.3672 8.37114 11.3665L10.8155 9.93555C10.8178 9.93424 10.8168 9.93066 10.8142 9.93066C10.8136 9.93066 10.8129 9.93039 10.8124 9.9299C10.812 9.92941 10.8117 9.92875 10.8117 9.92806L10.8165 8.23503C10.8167 8.17778 10.8021 8.12148 10.7742 8.07181C10.7462 8.02215 10.7059 7.98087 10.6573 7.95215C10.6087 7.92342 10.5535 7.90827 10.4974 7.90821C10.4412 7.90815 10.386 7.9232 10.3373 7.95182L8.52064 9.01855C8.47215 9.047 8.41719 9.06198 8.36124 9.06198C8.30529 9.06198 8.25032 9.047 8.20183 9.01855L6.3794 7.94922C6.33085 7.92073 6.2758 7.90575 6.21977 7.90579C6.16374 7.90584 6.10871 7.92089 6.0602 7.94945C6.01169 7.97801 5.9714 8.01907 5.94338 8.06851C5.91536 8.11795 5.90059 8.17403 5.90056 8.23112V11.291C5.90059 11.348 5.88593 11.4041 5.85802 11.4535C5.83012 11.503 5.78996 11.5441 5.74156 11.5727C5.69317 11.6014 5.63824 11.6165 5.58227 11.6168C5.5263 11.617 5.47126 11.6022 5.42267 11.5739L4.41131 10.9847C4.36232 10.9562 4.32162 10.915 4.29334 10.8652C4.26506 10.8155 4.25021 10.759 4.25031 10.7015L4.25925 5.35319C4.25937 5.29617 4.27419 5.24019 4.30222 5.19084C4.33024 5.14149 4.3705 5.10051 4.41895 5.072C4.46741 5.04349 4.52236 5.02845 4.57832 5.02838C4.63427 5.02831 4.68926 5.04322 4.73778 5.07161L8.20215 7.09928C8.25056 7.12761 8.30541 7.14252 8.36124 7.14252C8.41706 7.14252 8.47191 7.12761 8.52032 7.09928L11.9837 5.07161C12.0323 5.04318 12.0874 5.02827 12.1434 5.02838C12.1995 5.02849 12.2545 5.04362 12.303 5.07224C12.3515 5.10087 12.3917 5.14199 12.4197 5.19148C12.4476 5.24096 12.4623 5.29707 12.4623 5.35417V10.7038C12.4623 10.761 12.4475 10.8172 12.4194 10.8668C12.3913 10.9163 12.3509 10.9574 12.3022 10.986L10.4884 12.0505C10.4397 12.0791 10.3993 12.1203 10.3712 12.1699C10.3431 12.2196 10.3284 12.2759 10.3285 12.3332C10.3286 12.3905 10.3436 12.4468 10.3719 12.4963C10.4002 12.5458 10.4408 12.5868 10.4897 12.6152L11.4902 13.1956C11.5385 13.2237 11.5932 13.2384 11.6489 13.2383C11.7045 13.2382 11.7592 13.2232 11.8074 13.195L13.9429 11.9453ZM14.1528 7.14648C14.1528 7.20405 14.1678 7.26058 14.1963 7.3103C14.2248 7.36002 14.2657 7.40115 14.3148 7.42951C14.364 7.45787 14.4197 7.47244 14.4762 7.47172C14.5327 7.47101 14.5879 7.45505 14.6364 7.42546L15.5947 6.83952C15.642 6.81063 15.6812 6.76975 15.7084 6.72087C15.7356 6.67198 15.7499 6.61675 15.75 6.56055V5.36654C15.7499 5.309 15.7348 5.25251 15.7063 5.20284C15.6778 5.15316 15.6369 5.11207 15.5878 5.08375C15.5386 5.05543 15.483 5.0409 15.4265 5.04162C15.37 5.04235 15.3148 5.05832 15.2663 5.08789L14.308 5.67383C14.2607 5.70272 14.2215 5.74359 14.1943 5.79248C14.1671 5.84137 14.1528 5.8966 14.1528 5.9528V7.14648Z"
      fill="white" />
  </g>
  <defs>
    <clipPath id="clip0_81_4151">
      <rect width="11.5" height="12.5" fill="white" transform="translate(4.25 3.75)" />
    </clipPath>
  </defs>
</svg>
  