<svg width="20" height="20" viewBox="0 0 20 20" fill="none" xmlns="http://www.w3.org/2000/svg">
  <g clip-path="url(#clip0_81_4156)">
    <g clip-path="url(#clip1_81_4156)">
      <mask id="mask0_81_4156" style="mask-type:alpha" maskUnits="userSpaceOnUse" x="0" y="0"
        width="20" height="20">
        <path
          d="M10 20C15.5228 20 20 15.5228 20 10C20 4.47715 15.5228 0 10 0C4.47715 0 0 4.47715 0 10C0 15.5228 4.47715 20 10 20Z"
          fill="black" />
      </mask>
      <g mask="url(#mask0_81_4156)">
        <path
          d="M10 20C15.5228 20 20 15.5228 20 10C20 4.47715 15.5228 0 10 0C4.47715 0 0 4.47715 0 10C0 15.5228 4.47715 20 10 20Z"
          fill="black" />
        <path
          d="M16.612 17.5022L7.68244 6H6V13.9967H7.34596V7.70929L15.5554 18.3161C15.9259 18.0682 16.2788 17.7961 16.612 17.5022Z"
          fill="url(#paint0_linear_81_4156)" />
        <path d="M14.1111 6H12.7778V14H14.1111V6Z" fill="url(#paint1_linear_81_4156)" />
      </g>
    </g>
  </g>
  <defs>
    <linearGradient id="paint0_linear_81_4156" x1="12.1111" y1="12.9444" x2="16.0556" y2="17.8333"
      gradientUnits="userSpaceOnUse">
      <stop stop-color="white" />
      <stop offset="1" stop-color="white" stop-opacity="0" />
    </linearGradient>
    <linearGradient id="paint1_linear_81_4156" x1="13.4444" y1="6" x2="13.4221" y2="11.875"
      gradientUnits="userSpaceOnUse">
      <stop stop-color="white" />
      <stop offset="1" stop-color="white" stop-opacity="0" />
    </linearGradient>
    <clipPath id="clip0_81_4156">
      <rect width="20" height="20" rx="10" fill="white" />
    </clipPath>
    <clipPath id="clip1_81_4156">
      <rect width="20" height="20" fill="white" />
    </clipPath>
  </defs>
</svg>
  