<svg width="20" height="20" viewBox="0 0 20 20" fill="none" xmlns="http://www.w3.org/2000/svg">
  <g clip-path="url(#clip0_81_4185)">
    <rect width="20" height="20" rx="10" fill="#0F172A" />
    <path
      d="M10.8664 11.0629L9.30657 8.62186L9.30423 10.6728L6.61597 6.1418H4.72479V13.7909H6.59483L6.60093 9.26554L9.26145 13.5881L10.8664 11.0629Z"
      fill="white" />
    <path
      d="M9.30706 8.10808H11.1747L11.179 8.08642V6.1418H9.30894L9.30658 8.08642L9.30706 8.10808Z"
      fill="white" />
    <path
      d="M14.0613 10.2287C13.6139 10.2202 13.2096 10.4948 13.0522 10.9142C13.3142 10.5219 13.8131 10.3643 14.2526 10.535C14.4556 10.6178 14.7225 10.7514 14.934 10.6799C14.7329 10.3973 14.4079 10.2293 14.0613 10.2287Z"
      fill="white" />
    <path
      d="M16.1804 11.149C16.1804 10.9199 16.0559 10.8667 15.7974 10.7726C15.6056 10.7058 15.388 10.6305 15.2297 10.4235C15.1986 10.3825 15.17 10.3364 15.1394 10.2875C15.071 10.1608 14.9782 10.0488 14.8664 9.95812C14.7155 9.84708 14.5177 9.79298 14.261 9.79298C13.7462 9.79334 13.2823 10.1045 13.0861 10.5811C13.3341 10.2366 13.7463 10.0499 14.1685 10.0909C14.5907 10.1319 14.9593 10.3943 15.1366 10.7801C15.2252 10.9264 15.3999 10.9963 15.5648 10.9514C15.8171 10.8973 15.7997 11.1363 16.1809 11.2172L16.1804 11.149Z"
      fill="white" />
    <path
      d="M17.0127 11.1001V11.0949C17.0071 9.57794 15.7772 8.28028 14.261 8.28028C13.3351 8.27964 12.471 8.74584 11.9624 9.52054L11.9525 9.5036L11.1743 8.28028H9.30707L11.0812 11.0619L9.34983 13.7909H11.1634L11.9525 12.5775L12.7557 13.7909H14.5698L12.9249 11.1993C12.8976 11.1488 12.8828 11.0925 12.8817 11.0351C12.8815 10.6691 13.0267 10.318 13.2853 10.0592C13.5438 9.80034 13.8945 9.65498 14.2601 9.65512C15.0224 9.65512 15.1498 10.1115 15.3143 10.3261C15.639 10.7495 16.2876 10.5641 16.2876 11.1165C16.2895 11.246 16.3603 11.3645 16.4732 11.4276C16.5861 11.4906 16.7241 11.4886 16.8351 11.4222C16.9461 11.3558 17.0133 11.2351 17.0113 11.1057V11.1001H17.0127Z"
      fill="white" />
    <path
      d="M17.0146 11.4906C17.0331 11.6196 17.0148 11.7512 16.962 11.8703C16.8586 12.1098 16.6861 12.0298 16.6861 12.0298C16.6861 12.0298 16.5376 11.9573 16.6278 11.8185C16.7279 11.6637 16.9258 11.6816 17.0146 11.4906Z"
      fill="white" />
  </g>
  <defs>
    <clipPath id="clip0_81_4185">
      <rect width="20" height="20" rx="10" fill="white" />
    </clipPath>
  </defs>
</svg>
  