<svg width="21" height="20" viewBox="0 0 21 20" fill="none" xmlns="http://www.w3.org/2000/svg">
  <rect x="0.5" width="20" height="20" rx="10" fill="#306998" />
  <path
    d="M10.3811 3.8801C9.87977 3.88248 9.40121 3.92526 8.9799 4.0001C7.73898 4.22009 7.51383 4.68057 7.51383 5.5299V6.65141H10.4461V7.02525H6.41328C5.56114 7.02525 4.81493 7.53924 4.58147 8.51739C4.31215 9.63819 4.30027 10.3377 4.58147 11.5081C4.78987 12.3794 5.28766 13 6.13992 13H7.14821V11.6555C7.14821 10.6842 7.9855 9.82744 8.98001 9.82744H11.9089C12.7243 9.82744 13.375 9.15364 13.375 8.33208V5.53002C13.375 4.73241 12.7045 4.13333 11.9089 4.00022C11.405 3.91609 10.8824 3.87783 10.3811 3.8801ZM8.79536 4.7821C9.09817 4.7821 9.34564 5.03438 9.34564 5.34471C9.34564 5.65372 9.09829 5.90362 8.79536 5.90362C8.49137 5.90362 8.2452 5.65372 8.2452 5.34471C8.24508 5.03438 8.49137 4.7821 8.79536 4.7821Z"
    fill="white" />
  <path
    d="M13.8391 7.00012V8.29701C13.8391 9.30226 12.9849 10.1484 12.011 10.1484H9.08808C8.28745 10.1484 7.625 10.8324 7.625 11.6326V14.4136C7.625 15.2049 8.31447 15.6705 9.08808 15.8974C10.0143 16.1691 10.9027 16.2183 12.011 15.8974C12.7477 15.6844 13.4741 15.2561 13.4741 14.4136V13.3004H10.5513V12.9293H14.9375C15.7879 12.9293 16.105 12.3374 16.4008 11.4488C16.7063 10.534 16.6931 9.65422 16.4008 8.4808C16.1905 7.63579 15.7892 7 14.9375 7L13.8391 7.00012ZM12.1951 14.0424C12.4986 14.0424 12.7443 14.2904 12.7443 14.5973C12.7443 14.9051 12.4985 15.1554 12.1951 15.1554C11.8929 15.1554 11.646 14.9051 11.646 14.5973C11.646 14.2904 11.8929 14.0424 12.1951 14.0424Z"
    fill="white" />
</svg>
  