<svg width="20" height="20" viewBox="0 0 20 20" fill="none" xmlns="http://www.w3.org/2000/svg">
  <rect width="20" height="20" rx="10" fill="#191B22" />
  <g clip-path="url(#clip0_81_4131)">
    <path
      d="M10 11.2698C10.6838 11.2698 11.2381 10.7013 11.2381 10C11.2381 9.29869 10.6838 8.73016 10 8.73016C9.31622 8.73016 8.76191 9.29869 8.76191 10C8.76191 10.7013 9.31622 11.2698 10 11.2698Z"
      fill="white" />
    <path
      d="M10 12.8571C13.4189 12.8571 16.1905 11.578 16.1905 10C16.1905 8.42204 13.4189 7.14286 10 7.14286C6.5811 7.14286 3.80952 8.42204 3.80952 10C3.80952 11.578 6.5811 12.8571 10 12.8571Z"
      stroke="white" stroke-width="0.5" />
    <path
      d="M7.5875 11.4286C9.29695 14.4654 11.7629 16.2876 13.0952 15.4986C14.4276 14.7096 14.122 11.6082 12.4125 8.57143C10.703 5.53465 8.23715 3.71245 6.90476 4.50143C5.57237 5.2904 5.87805 8.39179 7.5875 11.4286Z"
      stroke="white" stroke-width="0.5" />
    <path
      d="M7.5875 8.57143C5.87805 11.6082 5.57237 14.7096 6.90476 15.4986C8.23715 16.2876 10.703 14.4654 12.4125 11.4286C14.122 8.39179 14.4276 5.29041 13.0952 4.50143C11.7629 3.71245 9.29695 5.53465 7.5875 8.57143Z"
      stroke="white" stroke-width="0.5" />
  </g>
  <defs>
    <clipPath id="clip0_81_4131">
      <rect width="13" height="12" fill="white" transform="translate(3.5 4)" />
    </clipPath>
  </defs>
</svg>
  