<svg width="20" height="20" viewBox="0 0 20 20" fill="none" xmlns="http://www.w3.org/2000/svg">
  <rect width="20" height="20" rx="10" fill="#FF4785" />
  <path
    d="M14.5419 4.21239C14.5426 4.22573 14.543 4.2391 14.543 4.25247V15.7476C14.543 16.1024 14.2882 16.3901 13.9738 16.3901C13.9653 16.3901 13.9568 16.3899 13.9483 16.3895L6.35132 16.0043C6.05545 15.9892 5.81922 15.7206 5.80811 15.3864L5.45744 4.83736C5.44586 4.48897 5.68247 4.19371 5.99068 4.17196L12.2206 3.73233L12.1663 5.18078C12.1657 5.19748 12.169 5.21397 12.1757 5.22866L12.1835 5.24269C12.2118 5.28487 12.2651 5.29312 12.3024 5.26113L12.8008 4.83436L13.2217 5.20869C13.2375 5.22272 13.2571 5.22998 13.2772 5.22919C13.324 5.22734 13.3607 5.18296 13.3591 5.13005L13.312 3.65524L13.9383 3.61116C14.252 3.58903 14.5223 3.8582 14.5419 4.21239Z"
    fill="white" />
  <mask id="mask0_81_4195" style="mask-type:luminance" maskUnits="userSpaceOnUse" x="5" y="3"
    width="10" height="14">
    <path
      d="M5.80811 15.3864L5.45744 4.83736C5.44586 4.48897 5.68247 4.19371 5.99068 4.17196L13.9383 3.61116C14.252 3.58903 14.5223 3.8582 14.5419 4.21239C14.5426 4.22573 14.543 4.2391 14.543 4.25247V15.7476C14.543 16.1024 14.2882 16.3901 13.9738 16.3901C13.9653 16.3901 13.9568 16.3899 13.9483 16.3895L6.35132 16.0043C6.05545 15.9892 5.81922 15.7206 5.80811 15.3864Z"
      fill="white" />
  </mask>
  <g mask="url(#mask0_81_4195)">
    <path
      d="M10.6757 8.45018C10.6757 8.70029 12.154 8.58042 12.3525 8.40473C12.3525 6.70151 11.5505 5.80649 10.0821 5.80649C8.6136 5.80649 7.79084 6.71543 7.79084 8.07885C7.79084 10.4535 10.6028 10.4989 10.6028 11.7942C10.6028 12.1577 10.4466 12.3736 10.1029 12.3736C9.65507 12.3736 9.47802 12.113 9.49885 11.2267C9.49885 11.0345 7.79084 10.9745 7.73876 11.2267C7.60616 13.3744 8.78023 13.9938 10.1237 13.9938C11.4256 13.9938 12.4462 13.203 12.4462 11.7714C12.4462 9.22639 9.59258 9.29456 9.59258 8.0334C9.59258 7.52212 9.92585 7.45395 10.1237 7.45395C10.332 7.45395 10.707 7.49579 10.6757 8.45018Z"
      fill="#FF4785" />
  </g>
  <mask id="mask1_81_4195" style="mask-type:luminance" maskUnits="userSpaceOnUse" x="5" y="3"
    width="10" height="14">
    <path
      d="M5.80811 15.3864L5.45744 4.83736C5.44586 4.48897 5.68247 4.19371 5.99068 4.17196L13.9383 3.61116C14.252 3.58903 14.5223 3.8582 14.5419 4.21239C14.5426 4.22573 14.543 4.2391 14.543 4.25247V15.7476C14.543 16.1024 14.2882 16.3901 13.9738 16.3901C13.9653 16.3901 13.9568 16.3899 13.9483 16.3895L6.35132 16.0043C6.05545 15.9892 5.81922 15.7206 5.80811 15.3864Z"
      fill="white" />
  </mask>
  <g mask="url(#mask1_81_4195)">
    <path
      d="M12.0968 5.10931L12.1525 3.6855L13.2716 3.60989L13.3198 5.05946C13.3215 5.11145 13.2839 5.15506 13.2359 5.15688C13.2153 5.15766 13.1951 5.15052 13.179 5.13674L12.7474 4.7689L12.2364 5.18827C12.1981 5.2197 12.1435 5.21159 12.1145 5.17015C12.1022 5.1527 12.096 5.13119 12.0968 5.10931Z"
      fill="#FF4785" />
  </g>
</svg>
  