<svg width="20" height="20" viewBox="0 0 20 20" fill="none" xmlns="http://www.w3.org/2000/svg">
  <rect width="20" height="20" rx="10" fill="#38BDF8" />
  <g clip-path="url(#clip0_81_4176)">
    <mask id="mask0_81_4176" style="mask-type:luminance" maskUnits="userSpaceOnUse" x="3" y="6"
      width="14" height="8">
      <path d="M3.75 6H16.25V13.8545H3.75V6Z" fill="white" />
    </mask>
    <g mask="url(#mask0_81_4176)">
      <path fill-rule="evenodd" clip-rule="evenodd"
        d="M10 6C8.33333 6 7.29167 6.87273 6.875 8.61818C7.5 7.74545 8.22917 7.41818 9.0625 7.63636C9.53796 7.76073 9.87778 8.12218 10.2539 8.52194C10.8667 9.17333 11.5759 9.92727 13.125 9.92727C14.7917 9.92727 15.8333 9.05455 16.25 7.30909C15.625 8.18182 14.8958 8.50909 14.0625 8.29091C13.587 8.16655 13.2472 7.80509 12.8711 7.40533C12.2583 6.75394 11.5491 6 10 6ZM6.875 9.92727C5.20833 9.92727 4.16667 10.8 3.75 12.5455C4.375 11.6727 5.10417 11.3455 5.9375 11.5636C6.41296 11.6882 6.75278 12.0495 7.12894 12.4492C7.74167 13.1006 8.45093 13.8545 10 13.8545C11.6667 13.8545 12.7083 12.9818 13.125 11.2364C12.5 12.1091 11.7708 12.4364 10.9375 12.2182C10.462 12.0938 10.1222 11.7324 9.74606 11.3326C9.13333 10.6812 8.42407 9.92727 6.875 9.92727Z"
        fill="white" />
    </g>
  </g>
  <defs>
    <clipPath id="clip0_81_4176">
      <rect width="12.5" height="8" fill="white" transform="translate(3.75 6)" />
    </clipPath>
  </defs>
</svg>
  