<svg width="20" height="20" viewBox="0 0 20 20" fill="none" xmlns="http://www.w3.org/2000/svg">
  <rect width="20" height="20" rx="10" fill="#FF4154" />
  <g clip-path="url(#clip0_81_4167)">
    <path
      d="M13.6366 7.78576C13.8401 6.80019 13.8837 6.04426 13.7522 5.49535C13.674 5.16889 13.531 4.90257 13.3135 4.71042C13.0839 4.50757 12.7937 4.40803 12.4675 4.40803C11.9295 4.40803 11.3639 4.65311 10.7595 5.11871C10.513 5.30862 10.2571 5.53753 9.99134 5.80556C9.97019 5.77836 9.94628 5.7527 9.91964 5.72899C9.16836 5.06019 8.53584 4.64467 7.99484 4.48445C7.67316 4.38919 7.37115 4.38011 7.09612 4.47257C6.80581 4.57016 6.5745 4.7719 6.4113 5.05448C6.14195 5.52083 6.07093 6.13362 6.17134 6.89026C6.21227 7.19868 6.28225 7.53463 6.38111 7.89864C6.34381 7.90314 6.30642 7.9114 6.2694 7.92365C5.31619 8.2392 4.64121 8.57854 4.23256 8.96633C3.98943 9.19706 3.83066 9.45394 3.77327 9.73828C3.71269 10.0384 3.77176 10.3394 3.93477 10.6218C4.2036 11.0875 4.69792 11.4548 5.40213 11.7457C5.6849 11.8625 6.00483 11.9683 6.36229 12.0634C6.34597 12.1002 6.33332 12.1393 6.32486 12.1802C6.12139 13.1658 6.07772 13.9218 6.20924 14.4707C6.28747 14.7971 6.43047 15.0634 6.64793 15.2556C6.8775 15.4584 7.16776 15.558 7.49389 15.558C8.03191 15.558 8.59751 15.3129 9.20195 14.8473C9.45111 14.6554 9.70981 14.4236 9.97859 14.1519C10.0062 14.1951 10.0402 14.2353 10.0804 14.271C10.8316 14.9398 11.4642 15.3553 12.0052 15.5155C12.3268 15.6108 12.6289 15.6199 12.9039 15.5274C13.1942 15.4298 13.4255 15.2281 13.5887 14.9455C13.858 14.4792 13.9291 13.8664 13.8287 13.1097C13.7862 12.7902 13.7127 12.441 13.6081 12.0618C13.6489 12.0576 13.69 12.049 13.7306 12.0356C14.6838 11.72 15.3588 11.3807 15.7674 10.9929C16.0106 10.7621 16.1693 10.5053 16.2267 10.2209C16.2873 9.92081 16.2282 9.61978 16.0652 9.33742C15.7964 8.87174 15.3021 8.50446 14.5979 8.21355C14.3067 8.09326 13.9761 7.98466 13.6057 7.88733C13.6189 7.85506 13.6293 7.82113 13.6366 7.78576Z"
      fill="#002C4B" />
    <path fill-rule="evenodd" clip-rule="evenodd"
      d="M9.03927 7.96053H10.9611C11.0789 7.96053 11.1877 8.02355 11.2464 8.12576L12.209 9.80339C12.2672 9.90478 12.2672 10.0294 12.209 10.1308L11.2464 11.8085C11.1877 11.9107 11.0789 11.9737 10.9611 11.9737H9.03927C8.92143 11.9737 8.8126 11.9107 8.75396 11.8085L7.79131 10.1308C7.73313 10.0294 7.73313 9.90478 7.79131 9.80339L8.75396 8.12576C8.8126 8.02355 8.92143 7.96053 9.03927 7.96053ZM10.7229 8.37345C10.8408 8.37345 10.9497 8.43655 11.0083 8.53884L11.7331 9.80354C11.7912 9.90485 11.7912 10.0294 11.7331 10.1307L11.0083 11.3954C10.9497 11.4977 10.8408 11.5608 10.7229 11.5608H9.27745C9.15955 11.5608 9.05067 11.4977 8.99205 11.3954L8.26724 10.1307C8.20917 10.0294 8.20917 9.90485 8.26724 9.80354L8.99205 8.53884C9.05067 8.43655 9.15955 8.37345 9.27745 8.37345H10.7229ZM10.4658 8.8251H9.5345C9.41673 8.8251 9.30794 8.88806 9.24927 8.99019L8.78219 9.80325C8.7239 9.90471 8.7239 10.0295 8.78219 10.131L9.24927 10.944C9.30794 11.0461 9.41673 11.1091 9.5345 11.1091H10.4658C10.5836 11.1091 10.6924 11.0461 10.7511 10.944L11.2181 10.131C11.2764 10.0295 11.2764 9.90471 11.2181 9.80325L10.7511 8.99019C10.6924 8.88806 10.5836 8.8251 10.4658 8.8251ZM10.2184 9.25738C10.3361 9.25738 10.4448 9.32025 10.5035 9.42226L10.7226 9.80303C10.7811 9.9046 10.7811 10.0296 10.7226 10.1312L10.5035 10.512C10.4448 10.614 10.3361 10.6768 10.2184 10.6768H9.78197C9.66428 10.6768 9.55556 10.614 9.49686 10.512L9.27773 10.1312C9.21928 10.0296 9.21928 9.9046 9.27773 9.80303L9.49686 9.42226C9.55556 9.32025 9.66428 9.25738 9.78197 9.25738H10.2184ZM10.0002 9.68322C9.89864 9.68322 9.80489 9.73732 9.75415 9.82516C9.7034 9.91299 9.7034 10.0212 9.75415 10.109C9.80489 10.1969 9.89864 10.251 10.0001 10.251C10.1017 10.251 10.1954 10.1969 10.2462 10.109C10.2969 10.0212 10.2969 9.91299 10.2462 9.82516C10.1954 9.73732 10.1017 9.68322 10.0002 9.68322ZM7.69737 9.96717H8.20841Z"
      fill="#FFD94C" />
    <path fill-rule="evenodd" clip-rule="evenodd"
      d="M7.35922 10.8788C7.44549 10.8295 7.555 10.8602 7.60381 10.9473L7.63504 11.0029C7.88528 11.4462 8.14599 11.8671 8.41714 12.2655C8.73736 12.7359 9.09749 13.2121 9.49753 13.6942C9.56032 13.7698 9.55164 13.8823 9.478 13.9472L9.43778 13.9825C8.1149 15.1384 7.25512 15.3692 6.85842 14.6752C6.4704 13.9962 6.61082 12.762 7.27969 10.9726C7.29453 10.9329 7.32267 10.8997 7.35922 10.8788ZM12.9957 12.2396C13.0912 12.2227 13.1826 12.2857 13.2013 12.3812L13.2114 12.4333C13.5383 14.1444 13.3081 15 12.5208 15C11.7506 15 10.7703 14.2703 9.57978 12.811C9.55338 12.7786 9.53912 12.738 9.53947 12.6962C9.54034 12.5974 9.62077 12.5181 9.71914 12.5189L9.78188 12.5194C10.2833 12.5221 10.7707 12.5047 11.2441 12.4672C11.8032 12.4229 12.3871 12.347 12.9957 12.2396ZM13.4479 8.60605C13.4824 8.51333 13.5861 8.4647 13.6812 8.49664L13.7331 8.51418C15.4331 9.09328 16.0791 9.72971 15.6709 10.4235C15.2717 11.1021 14.1108 11.5961 12.1883 11.9055C12.1456 11.9124 12.1019 11.9043 12.0647 11.8828C11.9768 11.832 11.9475 11.7209 11.9993 11.6347L12.0322 11.5796C12.2946 11.1392 12.5317 10.7009 12.7435 10.2648C12.9937 9.74966 13.2285 9.19676 13.4479 8.60605ZM7.81173 8.09449C7.85437 8.08763 7.89811 8.09566 7.93535 8.11718C8.02322 8.16798 8.0525 8.27906 8.00073 8.3653L7.96781 8.42036C7.70545 8.86077 7.46833 9.29906 7.25646 9.73524C7.00625 10.2503 6.77145 10.8032 6.55206 11.3939C6.51762 11.4867 6.41392 11.5353 6.31878 11.5034L6.26694 11.4858C4.56686 10.9067 3.9209 10.2703 4.32906 9.57653C4.72829 8.89794 5.88919 8.40392 7.81173 8.09449ZM10.5622 6.01746C11.8851 4.86162 12.7449 4.63075 13.1416 5.32485C13.5296 6.00377 13.3892 7.23797 12.7203 9.02744C12.7055 9.06713 12.6773 9.10031 12.6408 9.1212C12.5545 9.17051 12.445 9.13983 12.3962 9.05268L12.365 8.99714C12.1147 8.55375 11.854 8.13288 11.5829 7.73453C11.2626 7.26412 10.9025 6.78789 10.5025 6.30585C10.4397 6.23019 10.4484 6.11769 10.522 6.05277L10.5622 6.01746ZM7.54501 4.93421C8.31515 4.93421 9.29548 5.66388 10.486 7.12322C10.5124 7.15559 10.5267 7.19622 10.5263 7.23806C10.5254 7.3368 10.445 7.41614 10.3466 7.41528L10.2839 7.41483C9.78252 7.4121 9.29511 7.4295 8.82166 7.46702C8.26256 7.51132 7.67871 7.5872 7.07012 7.69464C6.9746 7.7115 6.88319 7.64854 6.8645 7.55301L6.85442 7.5009C6.52747 5.78977 6.75767 4.93421 7.54501 4.93421Z"
      fill="white" />
  </g>
  <defs>
    <clipPath id="clip0_81_4167">
      <rect width="12.5" height="12.5" fill="white" transform="translate(3.75 3.75)" />
    </clipPath>
  </defs>
</svg>
  