<svg width="20" height="20" viewBox="0 0 20 20" fill="none" xmlns="http://www.w3.org/2000/svg">
  <g clip-path="url(#clip0_81_4146)">
    <path d="M2 8H20V21H2V8Z" fill="white" />
    <path
      d="M0 10V20H20V0H0V10ZM16.1168 9.2C16.5958 9.31116 17.0312 9.5617 17.368 9.92C17.5534 10.113 17.7146 10.328 17.848 10.56C17.848 10.5856 16.984 11.1696 16.4576 11.496C16.4384 11.5088 16.3616 11.4256 16.2768 11.2992C16.1807 11.1334 16.0442 10.9946 15.8799 10.8959C15.7157 10.7971 15.5291 10.7415 15.3376 10.7344C14.7312 10.6928 14.3408 11.0112 14.344 11.5344C14.339 11.6647 14.3688 11.7939 14.4304 11.9088C14.5632 12.1856 14.8112 12.3504 15.5888 12.6864C17.0208 13.3024 17.6336 13.7088 18.0144 14.2864C18.44 14.9264 18.5344 15.96 18.2464 16.7248C17.9264 17.5568 17.1424 18.1216 16.0336 18.3088C15.5272 18.3668 15.0155 18.3614 14.5104 18.2928C13.7363 18.1652 13.0232 17.7935 12.4752 17.232C12.2912 17.0288 11.9328 16.4992 11.9552 16.4608C12.0136 16.4174 12.0751 16.3784 12.1392 16.344L12.88 15.9344L13.4544 15.6016L13.5744 15.7792C13.7769 16.0689 14.0346 16.3157 14.3328 16.5056C14.9728 16.8416 15.8464 16.7952 16.2784 16.4064C16.4234 16.2639 16.5139 16.0751 16.5341 15.8728C16.5543 15.6705 16.5029 15.4675 16.3888 15.2992C16.2288 15.0768 15.9088 14.8896 15.0144 14.4992C13.9824 14.0544 13.5376 13.7792 13.1312 13.3408C12.8775 13.0515 12.6902 12.7102 12.5824 12.3408C12.502 11.9188 12.4901 11.4866 12.5472 11.0608C12.76 10.064 13.5072 9.368 14.5984 9.1616C15.1037 9.09907 15.6156 9.1131 16.1168 9.2032V9.2ZM11.4224 10.0384V10.8576H8.8256V18.2544H6.984V10.856H4.3808V10.056C4.37269 9.78012 4.3791 9.50401 4.4 9.2288C4.4128 9.2144 6 9.2144 7.92 9.2144H11.4128L11.4224 10.0384Z"
      fill="#007ACC" />
  </g>
  <defs>
    <clipPath id="clip0_81_4146">
      <rect width="20" height="20" rx="10" fill="white" />
    </clipPath>
  </defs>
</svg>
  