<svg width="150" height="150" viewBox="0 0 150 150" fill="none" xmlns="http://www.w3.org/2000/svg">
    <rect width="150" height="150" rx="75" fill="#FDF8EC" />
    <path
        d="M34.85 90.125C35.5 90.575 36.65 91.125 38.3 91.775C39.95 92.375 41.9 92.675 44.15 92.675C46.1 92.675 47.7 92.35 48.95 91.7C50.2 91 51.15 89.975 51.8 88.625C52.5 87.275 52.95 85.525 53.15 83.375C53.4 81.225 53.525 78.65 53.525 75.65V47.75H63.875V74.825C63.875 78.825 63.65 82.475 63.2 85.775C62.75 89.075 61.875 91.925 60.575 94.325C59.275 96.725 57.3 98.575 54.65 99.875C52.05 101.175 48.575 101.825 44.225 101.825C41.825 101.825 39.675 101.55 37.775 101C35.875 100.45 34.125 99.625 32.525 98.525L34.85 90.125ZM87.5475 47.75H98.0475L117.622 101H106.972L102.022 87.725H83.4225L78.5475 101H67.8975L87.5475 47.75ZM100.147 80.45L92.7975 58.475L85.1475 80.45H100.147Z"
        fill="#3D2C2E" />
</svg>
    