<svg width="150" height="150" viewBox="0 0 150 150" fill="none" xmlns="http://www.w3.org/2000/svg">
    <rect width="150" height="150" rx="75" fill="#FDF8EC" />
    <path
        d="M26.42 93.95C27.2 94.49 28.58 95.15 30.56 95.93C32.54 96.65 34.88 97.01 37.58 97.01C39.92 97.01 41.84 96.62 43.34 95.84C44.84 95 45.98 93.77 46.76 92.15C47.6 90.53 48.14 88.43 48.38 85.85C48.68 83.27 48.83 80.18 48.83 76.58V43.1H61.25V75.59C61.25 80.39 60.98 84.77 60.44 88.73C59.9 92.69 58.85 96.11 57.29 98.99C55.73 101.87 53.36 104.09 50.18 105.65C47.06 107.21 42.89 107.99 37.67 107.99C34.79 107.99 32.21 107.66 29.93 107C27.65 106.34 25.55 105.35 23.63 104.03L26.42 93.95ZM89.657 43.1H102.257L125.747 107H112.967L107.027 91.07H84.707L78.857 107H66.077L89.657 43.1ZM104.777 82.34L95.957 55.97L86.777 82.34H104.777Z"
        fill="#3D2C2E" />
</svg>
    